<svg xmlns="http://www.w3.org/2000/svg" viewBox="0 0 16 16">
    <g stroke-width="4%">
        <path fill="oklch(71.6% 0.22 46.2)" stroke="oklch(70% 0.138 244.06)" stroke-linejoin="round"
            d="M3 2h10v11.1c-.14 1.06-2.32 1.9-5 1.9-2.76 0-5-.9-5-2h0V2z" />
        <ellipse cx="8" cy="2" fill="oklch(38.5% 0.111 266.29)" stroke="oklch(70% 0.138 244.06)" rx="5" ry="1" />
        <path stroke-linejoin="round" fill="white" stroke="oklch(70% 0.138 244.06)"
            d="M8.2 5c1.93 0 3.5.9 3.5 2a2 2 0 11-1.55 3.26c-.7.44-1.98.74-3.45.74-2.2 0-4-.67-4-1.5 0-.23.14-.45.4-.65.17-.14.42-.27.7-.39-.98.02-1.94-.08-2.1-.96C1.85 6.67 3.57 6 5.5 6h-.03c.6-.6 1.73-1 3.03-1z" />
        <path fill="none" stroke="oklch(70% 0.138 244.06)" stroke-linecap="round" stroke-width="3%"
            d="M8 7c2.43-.58 2.43 1 2.43 1" />
    </g>
</svg>